<svg width="24" height="24" viewBox="0 0 24 24" fill="none" xmlns="http://www.w3.org/2000/svg">
<path d="M7.64873 8.25C7.76254 8.25 7.87635 8.25 7.99016 8.25C8.06604 11.1667 9.81114 13.5 12.0115 13.5C14.1739 13.5 15.9569 11.1667 16.0328 8.25C16.1466 8.25 16.2604 8.25 16.3742 8.25C16.5639 8.25 16.6777 8.08333 16.7157 7.875C16.9812 4.875 15.312 2.41667 12.6564 2.04167C12.6185 2.04167 12.6185 2.04167 12.5805 2.04167C12.4288 2 12.2391 2 12.0494 2H12.0115C11.8218 2 11.6321 2 11.4424 2.04167C11.4045 2.04167 11.4045 2.04167 11.3666 2.04167C8.7489 2.41667 7.04174 4.83333 7.3073 7.875C7.3073 8.04167 7.45904 8.20833 7.64873 8.25ZM12.0115 12.6667C10.2284 12.6667 8.78684 10.7083 8.7489 8.25C10.0388 8.08333 11.1769 7.41667 11.9356 6.33333C12.6943 7.41667 13.9083 8.125 15.2741 8.25C15.2361 10.7083 13.7945 12.6667 12.0115 12.6667ZM11.4804 2.875H11.5183C11.708 2.83333 11.8597 2.83333 11.9735 2.83333H12.0115C12.1632 2.83333 12.315 2.83333 12.4667 2.875H12.5047C14.6671 3.125 16.0707 5 15.9569 7.45833C15.8811 7.45833 15.8431 7.45833 15.7672 7.45833C14.2498 7.45833 12.922 6.66667 12.2391 5.375C12.1632 5.25 12.0494 5.16667 11.8977 5.16667C11.7459 5.16667 11.6321 5.25 11.5562 5.375C10.8354 6.79167 9.54558 7.54167 7.99016 7.45833C7.95222 5 9.31796 3.125 11.4804 2.875Z" fill="#969696"/>
<path d="M12.8461 10.375C12.315 10.8333 11.67 10.8333 11.1389 10.375C10.9872 10.25 10.7216 10.25 10.6078 10.4583C10.494 10.625 10.494 10.9166 10.6837 11.0416C11.063 11.375 11.5562 11.5416 12.0115 11.5416C12.4667 11.5416 12.9219 11.375 13.3393 11.0416C13.491 10.9166 13.5289 10.625 13.4151 10.4583C13.2634 10.2916 13.0358 10.25 12.8461 10.375Z" fill="#969696"/>
<path d="M18.9161 16.7084C18.6884 15.2917 17.5503 14.2084 16.1467 14.0834L14.743 13.9584C14.6292 13.9584 14.5154 14 14.4016 14.125L12.96 16.0417C12.7323 16.3334 12.4288 16.5 12.0874 16.5C11.746 16.5 11.4425 16.3334 11.2149 16.0417L9.81118 14.125C9.73531 14 9.6215 13.9584 9.46975 13.9584L7.87639 14.0834C6.47272 14.2084 5.33461 15.2917 5.10699 16.7084L4.5 21.5417C4.5 21.6667 4.5 21.7917 4.57587 21.875C4.68969 21.9584 4.76556 22 4.87937 22H19.1057C19.2196 22 19.3334 21.9584 19.4092 21.875C19.4851 21.7917 19.5231 21.6667 19.4851 21.5417L18.9161 16.7084ZM16.8675 21.1667V19.4584C16.8675 19.2084 16.7157 19.0417 16.4881 19.0417C16.2605 19.0417 16.1087 19.2084 16.1087 19.4584V21.1667H7.91433V19.4584C7.91433 19.2084 7.76258 19.0417 7.53496 19.0417C7.30734 19.0417 7.15559 19.2084 7.15559 19.4584V21.1667H5.33461L5.86573 16.875C6.01748 15.8334 6.89003 15.0417 7.95227 14.9584L9.318 14.8334L10.6079 16.5834C10.9493 17.0834 11.4804 17.3334 12.0495 17.3334C12.6185 17.3334 13.1496 17.0417 13.4911 16.5834L14.8189 14.8334L16.0328 14.9584C17.0951 15.0417 17.9676 15.8334 18.1194 16.875L18.6884 21.1667H16.8675Z" fill="#969696"/>
</svg>
