<svg xmlns="http://www.w3.org/2000/svg" width="150.8" height="114.924" viewBox="0 0 150.8 114.924">
  <g id="graduation-cap_copy" data-name="graduation-cap copy" transform="translate(-0.5 -33.686)" opacity="0.5">
    <path id="Path_686" data-name="Path 686" d="M.5,70.575a9.638,9.638,0,0,1,5.4-5.67c20.25-9.612,40.446-19.332,60.7-28.89a22.705,22.705,0,0,1,20.358.162c19.656,9.5,39.2,19.116,58.805,28.674,2.43,1.188,4.482,2.646,5.292,5.4.756,2.646-.27,4.7-2.214,6.426a14.432,14.432,0,0,1-3.51,2.106c-5.994,2.916-11.934,5.94-17.982,8.8a2.16,2.16,0,0,0-1.4,2.322c.054,10.908,0,21.816.054,32.67a6.253,6.253,0,0,1-1.674,4.374,60.431,60.431,0,0,1-34.29,20.034c-19.332,3.888-37.26.54-53.3-11.232A60.29,60.29,0,0,1,26.8,126.41a4.5,4.5,0,0,1-1.188-3.348c.054-11.124,0-22.3.054-33.426a1.982,1.982,0,0,0-1.35-2.214c-2.268-1.026-4.536-2.16-6.75-3.294-.756-.378-1.08-.486-1.08.594.054,7.56,0,15.12,0,22.68a1.283,1.283,0,0,0,.756,1.242c6.1,3.564,6.21,11.07.162,14.8-.81.486-.54.972-.378,1.566,2.322,7.344,4.59,14.688,6.912,22.032a2.812,2.812,0,0,1,.27,1.512H14.54c-3.51,0-6.966-.054-10.476.054-1.242.054-1.35-.27-1.026-1.4,2.322-7.29,4.59-14.58,6.912-21.87.324-1.026.324-1.566-.756-2.214a8.257,8.257,0,0,1,.27-14.256,1.889,1.889,0,0,0,1.134-1.944c-.054-8.37-.054-16.686,0-25.056a1.782,1.782,0,0,0-1.188-1.89c-1.458-.648-2.916-1.4-4.374-2.16A9.485,9.485,0,0,1,.554,72.789C.5,72.141.5,71.385.5,70.575ZM23.72,80.619v.27c.378.216.756.378,1.188.594,14.472,6.912,28.89,13.878,43.362,20.79a18.475,18.475,0,0,0,16.74-.054c13.068-6.372,26.136-12.69,39.2-19.062,6.318-3.078,12.69-6.21,19.008-9.342.972-.486,2.484-.864,2.484-2.052,0-1.242-1.512-1.512-2.484-2Q114.142,55.509,84.955,41.307a18.245,18.245,0,0,0-16.47-.054c-12.2,5.832-24.408,11.718-36.558,17.55C23.99,62.637,16.052,66.417,8.06,70.251c-.756.378-1.782.648-1.782,1.566.054.864,1.08,1.188,1.782,1.566,1.728.864,3.456,1.62,5.184,2.484a3.16,3.16,0,0,0,2,.324l17.982-2.106c9.666-1.134,19.278-2.268,28.944-3.4,4.374-.54,8.748-1.08,13.176-1.566a2.76,2.76,0,0,1,3.348,2.322c.216,1.512-.81,2.7-2.592,2.97-1.08.162-2.16.27-3.186.432-10.422,1.242-20.844,2.43-31.266,3.672C35.6,79.215,29.66,79.917,23.72,80.619Zm96.713,10.1c-.81.378-1.4.648-1.944.918-10.53,5.13-21.006,10.314-31.536,15.444a23.161,23.161,0,0,1-20.736.108c-11.232-5.238-22.41-10.638-33.534-16.038-.972-.486-1.4-.648-1.4.756.054,10.044.054,20.142,0,30.186a2.524,2.524,0,0,0,.7,1.836,48.714,48.714,0,0,0,8.37,7.614c15.444,11.178,32.508,14.04,50.868,9.612a55.506,55.506,0,0,0,28.35-16.956,3.552,3.552,0,0,0,.918-2.484c-.054-7.776,0-15.5,0-23.274C120.433,96.009,120.433,93.525,120.433,90.717Z" transform="translate(0 0)" fill="#fff"/>
  </g>
</svg>
