<svg xmlns="http://www.w3.org/2000/svg" width="119.084" height="119.023" viewBox="0 0 119.084 119.023">
  <g id="personal-data" transform="translate(-19.612 -18.7)" opacity="0.5">
    <path id="Path_680" data-name="Path 680" d="M27.746,115.156c-1.744-2.291-1.812-4.753-1.881-7.18-.137-4.308-.137-8.616-.137-12.959,0-17.233.068-34.432.1-51.664,0-6.086,4.206-10.258,10.326-10.258q25.9,0,51.8.034c1.3,0,1.539-.376,1.5-1.573-.1-2.222-.068-4.445-.034-6.667a6.081,6.081,0,0,1,6.223-6.155c8.787-.034,17.609,0,26.4-.034a2.427,2.427,0,0,1,1.812.752q6.975,6.975,13.985,13.95a2.834,2.834,0,0,1,.821,2.188c-.034,12,0,24,0,36.039,0,3.556-1.881,5.915-5.4,6.531-.855.137-.752.615-.752,1.128,0,6.736.034,13.506.034,20.242,0,3.624.137,7.249-.205,10.873a9.575,9.575,0,0,1-1.71,4.719H136c2.017,0,2.735.684,2.667,2.7-.068,3.077.308,6.155-.479,9.2a14.374,14.374,0,0,1-13.232,10.668c-.376,0-.752.034-1.163.034H34.55c-7.215,0-12.959-4.411-14.5-11.181-.718-3.146-.342-6.394-.342-9.574,0-1.128.957-1.778,2.257-1.812C23.779,115.122,25.626,115.156,27.746,115.156ZM72.537,79.665c.444.239.718.376,1.026.547a20.146,20.146,0,0,1,11.557,16c.445,3.18.137,6.394.171,9.608,0,.889.239,1.128,1.128,1.128,10.839-.034,21.712-.034,32.551,0,.923,0,1.231-.205,1.231-1.2-.034-8.787-.034-17.609,0-26.4,0-.992-.308-1.163-1.231-1.163-7.591.034-15.216.034-22.806.034-4.24,0-6.736-2.5-6.736-6.8,0-8.24-.034-16.481.034-24.755,0-1.094-.308-1.333-1.368-1.3-4,.068-8.035.034-12.036.034-3.043,0-6.052.034-9.1,0a2,2,0,0,1-2.12-2.086A2.081,2.081,0,0,1,66.93,41.3c.342-.034.684,0,1.026,0H86.8c2.667,0,2.6,0,2.667-2.633.034-1.128-.239-1.47-1.436-1.47q-25.952.051-51.938.034c-3.8,0-6.155,2.359-6.155,6.155v65.649c0,3.761,2.359,6.155,6.155,6.155h86.164c3.8,0,6.155-2.393,6.155-6.155V81.1c0-2.838,0-2.77-2.872-2.838-1.026-.034-1.265.274-1.265,1.265q.051,14.361.034,28.721c0,2.188-.65,2.872-2.8,2.872H36.738c-2.086,0-2.735-.684-2.735-2.77V44.242c0-2.257.615-2.872,2.906-2.872h11.01c1.539,0,2.428.752,2.462,2.017s-.923,2.086-2.53,2.086c-2.77,0-5.573.068-8.343-.034-1.128-.034-1.47.239-1.47,1.436.034,13.643.034,27.251.034,40.894,0,5.949.034,11.865-.034,17.814,0,1.231.376,1.5,1.5,1.436a27.116,27.116,0,0,1,3.727,0c.821.034,1.026-.239.992-1.026-.034-2.53-.1-5.06,0-7.556a20.182,20.182,0,0,1,10.7-17.643c.65-.376,1.3-.684,2.052-1.094C53.561,77,52.4,73.476,52.432,69.441c0-1.333,0-2.667.034-3.966A12.3,12.3,0,0,1,76.88,63.663a35.309,35.309,0,0,1,.205,6.018A11.935,11.935,0,0,1,72.537,79.665ZM93.531,48.379V71.561c0,1.71.718,2.53,2.325,2.53h36.38a2.043,2.043,0,0,0,2.291-2.291c0-11.249,0-22.464.034-33.713,0-.752-.239-.923-.957-.923q-3.59.051-7.18,0a6.154,6.154,0,0,1-6.257-6.257c-.034-2.291-.068-4.616,0-6.907.034-.957-.239-1.2-1.2-1.2q-11.283.051-22.567.034c-2.291,0-2.906.615-2.906,2.872C93.5,33.232,93.531,40.822,93.531,48.379ZM79.068,133.586h44.86a10.222,10.222,0,0,0,10.5-8.924c.171-1.3,0-2.633.137-3.966.1-1.128-.239-1.5-1.436-1.47-12.719.034-25.473.034-38.193,0-1.2,0-1.436.376-1.436,1.47.034,4.274-2.5,6.736-6.77,6.736H71.854c-4.65,0-7.078-2.359-7.044-6.975,0-1.06-.342-1.231-1.3-1.231q-18.259.051-36.551.034c-1.026,0-2.359-.342-2.975.171-.718.615-.239,2.017-.239,3.043-.034,6.873,4.24,11.112,11.078,11.112Q56.98,133.637,79.068,133.586Zm-14.327-26.67H80.128c.444,0,1.094.274,1.06-.615-.1-3.385.274-6.77-.239-10.121a16.371,16.371,0,0,0-32.346-.1c-.479,3.214-.1,6.5-.239,9.711-.034.923.239,1.128,1.128,1.128ZM56.6,67.7v2.53a8.208,8.208,0,0,0,16.207,1.607,28.588,28.588,0,0,0,.171-6.394,8.172,8.172,0,0,0-16.173-1.47A17.982,17.982,0,0,0,56.6,67.7Zm22.635,51.562H69.9c-.342,0-.855-.239-1.026.41-.547,2.257.513,3.659,2.872,3.659h14.6c2.5,0,3.077-.615,3.077-3.077,0-.889-.308-1.026-1.094-1.026C85.291,119.259,82.282,119.259,79.239,119.259Zm51.7-86.2-6.667-6.667c0,1.333-.034,2.941,0,4.582a1.94,1.94,0,0,0,1.983,2.052C127.929,33.129,129.6,33.061,130.938,33.061Z" fill="#fff"/>
    <path id="Path_681" data-name="Path 681" d="M124.877,84.771h.513c1.607.034,2.564.786,2.53,2.052,0,1.265-.957,2.017-2.564,2.052-.479,0-.957.034-1.4,0a2.055,2.055,0,1,1,.034-4.1A7.7,7.7,0,0,1,124.877,84.771Z" transform="translate(-67.248 -43.47)" fill="#fff"/>
    <path id="Path_682" data-name="Path 682" d="M264.174,94.84H250.19a2.141,2.141,0,0,1-2.428-1.778,2.068,2.068,0,0,1,2.291-2.291c2.975-.034,5.984,0,8.958,0h18.977c1.539,0,2.393.615,2.53,1.778.171,1.3-.821,2.291-2.428,2.291C273.475,94.874,268.824,94.84,264.174,94.84Z" transform="translate(-150.128 -47.418)" fill="#fff"/>
    <path id="Path_683" data-name="Path 683" d="M264.207,120.734h13.985c1.47,0,2.359.718,2.428,1.915a2.068,2.068,0,0,1-2.291,2.154c-2.941.034-5.881,0-8.856,0H250.5a2.835,2.835,0,0,1-1.949-.479,1.984,1.984,0,0,1-.65-2.188,2.059,2.059,0,0,1,2.188-1.436h12.309C263.01,120.7,263.591,120.734,264.207,120.734Z" transform="translate(-150.16 -67.124)" fill="#fff"/>
    <path id="Path_684" data-name="Path 684" d="M264.244,150.734h13.848c1.47,0,2.359.718,2.428,1.915a2.068,2.068,0,0,1-2.291,2.154c-2.941.034-5.881,0-8.856,0H250.4a2.835,2.835,0,0,1-1.949-.479,1.984,1.984,0,0,1-.65-2.188,2.059,2.059,0,0,1,2.188-1.436h12.172C262.876,150.7,263.56,150.734,264.244,150.734Z" transform="translate(-150.094 -86.866)" fill="#fff"/>
    <path id="Path_685" data-name="Path 685" d="M255.9,64.8h-5.778a2.052,2.052,0,0,1-2.325-2.017c-.034-1.231.889-2.086,2.393-2.086h11.66c1.436,0,2.325.786,2.325,2.017.034,1.231-.889,2.086-2.393,2.086C259.834,64.837,257.851,64.8,255.9,64.8Z" transform="translate(-150.164 -27.639)" fill="#fff"/>
  </g>
</svg>
