<svg xmlns="http://www.w3.org/2000/svg" width="22.352" height="22.347" viewBox="0 0 22.352 22.347">
  <path id="Icon_awesome-instagram" data-name="Icon awesome-instagram" d="M11.173,7.682a5.73,5.73,0,1,0,5.73,5.73A5.721,5.721,0,0,0,11.173,7.682Zm0,9.455A3.725,3.725,0,1,1,14.9,13.411a3.732,3.732,0,0,1-3.725,3.725Zm7.3-9.689a1.336,1.336,0,1,1-1.336-1.336A1.333,1.333,0,0,1,18.474,7.447ZM22.269,8.8a6.614,6.614,0,0,0-1.805-4.682,6.657,6.657,0,0,0-4.682-1.805c-1.845-.1-7.375-.1-9.22,0a6.647,6.647,0,0,0-4.682,1.8A6.635,6.635,0,0,0,.073,8.8c-.1,1.845-.1,7.375,0,9.22A6.614,6.614,0,0,0,1.878,22.7a6.666,6.666,0,0,0,4.682,1.805c1.845.1,7.375.1,9.22,0A6.614,6.614,0,0,0,20.463,22.7a6.657,6.657,0,0,0,1.805-4.682c.1-1.845.1-7.37,0-9.215ZM19.885,20a3.771,3.771,0,0,1-2.124,2.124c-1.471.583-4.962.449-6.587.449s-5.121.13-6.587-.449A3.771,3.771,0,0,1,2.462,20c-.583-1.471-.449-4.962-.449-6.587s-.13-5.121.449-6.587A3.771,3.771,0,0,1,4.586,4.7c1.471-.583,4.962-.449,6.587-.449s5.121-.13,6.587.449a3.771,3.771,0,0,1,2.124,2.124c.583,1.471.449,4.962.449,6.587S20.468,18.533,19.885,20Z" transform="translate(0.005 -2.238)" fill="#b91381"/>
</svg>
